{
  "accessors": [
    {
      "bufferView": 2,
      "componentType": 5126,
      "count": 5969,
      "max": [
        2167.839111328125,
        -8900.2099609375,
        1005.4580078125
      ],
      "min": [
        1275.2159423828125,
        -9792.8330078125,
        819.6527099609375
      ],
      "type": "VEC3"
    },
    {
      "bufferView": 2,
      "byteOffset": 71628,
      "componentType": 5126,
      "count": 5969,
      "max": [
        0.9999999403953552,
        0.9999999403953552,
        0.9999986886978149
      ],
      "min": [
        -0.9999998211860657,
        -0.9999998211860657,
        -0.9999998807907104
      ],
      "type": "VEC3"
    },
    {
      "bufferView": 1,
      "componentType": 5126,
      "count": 5969,
      "max": [
        0.9918562769889832,
        0.988842785358429
      ],
      "min": [
        0.3311099112033844,
        0.00390625
      ],
      "type": "VEC2"
    },
    {
      "bufferView": 0,
      "componentType": 5125,
      "count": 33648,
      "type": "SCALAR"
    },
    {
      "bufferView": 2,
      "byteOffset": 143256,
      "componentType": 5126,
      "count": 225,
      "max": [
        1814.321044921875,
        -9254.2783203125,
        824.7564697265625
      ],
      "min": [
        1628.7430419921875,
        -9439.8564453125,
        -849.0089111328125
      ],
      "type": "VEC3"
    },
    {
      "bufferView": 2,
      "byteOffset": 145956,
      "componentType": 5126,
      "count": 225,
      "max": [
        0.15683622658252716,
        0.15683750808238983,
        1.0
      ],
      "min": [
        -0.1568366438150406,
        -0.15683411061763763,
        -1.0
      ],
      "type": "VEC3"
    },
    {
      "bufferView": 1,
      "byteOffset": 47752,
      "componentType": 5126,
      "count": 225,
      "max": [
        0.9916775822639465,
        0.679986298084259
      ],
      "min": [
        0.591193675994873,
        0.025087349116802216
      ],
      "type": "VEC2"
    },
    {
      "bufferView": 0,
      "byteOffset": 134592,
      "componentType": 5125,
      "count": 768,
      "type": "SCALAR"
    },
    {
      "bufferView": 2,
      "byteOffset": 148656,
      "componentType": 5126,
      "count": 11960,
      "max": [
        2261.212890625,
        -8807.3857421875,
        818.9362182617188
      ],
      "min": [
        1181.8509521484375,
        -9886.748046875,
        -849.1630859375
      ],
      "type": "VEC3"
    },
    {
      "bufferView": 2,
      "byteOffset": 292176,
      "componentType": 5126,
      "count": 11960,
      "max": [
        0.9999955296516418,
        0.9999954700469971,
        0.999989926815033
      ],
      "min": [
        -0.9999954700469971,
        -0.9999955296516418,
        -0.9999988675117493
      ],
      "type": "VEC3"
    },
    {
      "bufferView": 1,
      "byteOffset": 49552,
      "componentType": 5126,
      "count": 11960,
      "max": [
        0.991683304309845,
        0.9960938096046448
      ],
      "min": [
        0.00390625,
        0.00390625
      ],
      "type": "VEC2"
    },
    {
      "bufferView": 0,
      "byteOffset": 137664,
      "componentType": 5125,
      "count": 69504,
      "type": "SCALAR"
    }
  ],
  "asset": {
    "extras": {
      "author": "KSFX.NO (https://sketchfab.com/KSFX)",
      "license": "CC-BY-4.0 (http://creativecommons.org/licenses/by/4.0/)",
      "source": "https://sketchfab.com/3d-models/chase-it-lima-protein-657efac482ed4b4ca4c59083383b0d43",
      "title": "Chase It Lima protein"
    },
    "generator": "Sketchfab-12.66.0",
    "version": "2.0"
  },
  "bufferViews": [
    {
      "buffer": 0,
      "byteLength": 415680,
      "name": "floatBufferViews",
      "target": 34963
    },
    {
      "buffer": 0,
      "byteLength": 145232,
      "byteOffset": 415680,
      "byteStride": 8,
      "name": "floatBufferViews",
      "target": 34962
    },
    {
      "buffer": 0,
      "byteLength": 435696,
      "byteOffset": 560912,
      "byteStride": 12,
      "name": "floatBufferViews",
      "target": 34962
    }
  ],
  "buffers": [
    {
      "byteLength": 996608,
      "uri": "scene.bin"
    }
  ],
  "images": [
    {
      "uri": "textures/wire_027177027_baseColor.png"
    }
  ],
  "materials": [
    {
      "doubleSided": true,
      "name": "wire_027177027",
      "pbrMetallicRoughness": {
        "baseColorTexture": {
          "index": 0
        },
        "metallicFactor": 0.0,
        "roughnessFactor": 0.6
      }
    },
    {
      "doubleSided": true,
      "name": "wire_134110008",
      "pbrMetallicRoughness": {
        "baseColorTexture": {
          "index": 0
        },
        "metallicFactor": 0.0,
        "roughnessFactor": 0.6
      }
    }
  ],
  "meshes": [
    {
      "name": "Object_0",
      "primitives": [
        {
          "attributes": {
            "NORMAL": 1,
            "POSITION": 0,
            "TEXCOORD_0": 2
          },
          "indices": 3,
          "material": 0,
          "mode": 4
        }
      ]
    },
    {
      "name": "Object_1",
      "primitives": [
        {
          "attributes": {
            "NORMAL": 5,
            "POSITION": 4,
            "TEXCOORD_0": 6
          },
          "indices": 7,
          "material": 1,
          "mode": 4
        }
      ]
    },
    {
      "name": "Object_2",
      "primitives": [
        {
          "attributes": {
            "NORMAL": 9,
            "POSITION": 8,
            "TEXCOORD_0": 10
          },
          "indices": 11,
          "material": 1,
          "mode": 4
        }
      ]
    }
  ],
  "nodes": [
    {
      "children": [
        1
      ],
      "matrix": [
        0.00014521947014145553,
        0.0,
        0.0,
        0.0,
        0.0,
        3.2245199874981874e-20,
        -0.00014521947014145553,
        0.0,
        0.0,
        0.00014521947014145553,
        3.2245199874981874e-20,
        0.0,
        0.0,
        0.0,
        0.0,
        1.0
      ],
      "name": "Sketchfab_model"
    },
    {
      "children": [
        2,
        3,
        4
      ],
      "name": "UV.obj.cleaner.materialmerger.gles"
    },
    {
      "mesh": 0,
      "name": "Object_2"
    },
    {
      "mesh": 1,
      "name": "Object_3"
    },
    {
      "mesh": 2,
      "name": "Object_4"
    }
  ],
  "samplers": [
    {
      "magFilter": 9729,
      "minFilter": 9987,
      "wrapS": 10497,
      "wrapT": 10497
    }
  ],
  "scene": 0,
  "scenes": [
    {
      "name": "Sketchfab_Scene",
      "nodes": [
        0
      ]
    }
  ],
  "textures": [
    {
      "sampler": 0,
      "source": 0
    }
  ]
}
