{
  "accessors": [
    {
      "bufferView": 2,
      "componentType": 5126,
      "count": 46880,
      "max": [
        1.2883800268173218,
        0.8920829892158508,
        0.6610010266304016
      ],
      "min": [
        -1.2883800268173218,
        0.02818569913506508,
        -0.5041369795799255
      ],
      "type": "VEC3"
    },
    {
      "bufferView": 2,
      "byteOffset": 562560,
      "componentType": 5126,
      "count": 46880,
      "max": [
        1.0,
        1.0,
        1.0
      ],
      "min": [
        -1.0,
        -1.0,
        -1.0
      ],
      "type": "VEC3"
    },
    {
      "bufferView": 1,
      "componentType": 5126,
      "count": 46880,
      "max": [
        0.9988420009613037,
        0.9957190155982971
      ],
      "min": [
        0.0011797200422734022,
        0.03058769926428795
      ],
      "type": "VEC2"
    },
    {
      "bufferView": 0,
      "componentType": 5125,
      "count": 240588,
      "type": "SCALAR"
    },
    {
      "bufferView": 2,
      "byteOffset": 1125120,
      "componentType": 5126,
      "count": 9372,
      "max": [
        0.8644999861717224,
        0.7937530279159546,
        -0.3069309890270233
      ],
      "min": [
        -0.8644999861717224,
        0.6510319709777832,
        -0.46015098690986633
      ],
      "type": "VEC3"
    },
    {
      "bufferView": 2,
      "byteOffset": 1237584,
      "componentType": 5126,
      "count": 9372,
      "max": [
        0.9999925494194031,
        0.99997478723526,
        0.9999904632568359
      ],
      "min": [
        -0.9999925494194031,
        -0.9999681115150452,
        -0.9999951124191284
      ],
      "type": "VEC3"
    },
    {
      "bufferView": 1,
      "byteOffset": 375040,
      "componentType": 5126,
      "count": 9372,
      "max": [
        0.9916170239448547,
        0.9879459738731384
      ],
      "min": [
        0.00838238000869751,
        0.8917369842529297
      ],
      "type": "VEC2"
    },
    {
      "bufferView": 0,
      "byteOffset": 962352,
      "componentType": 5125,
      "count": 52224,
      "type": "SCALAR"
    },
    {
      "bufferView": 2,
      "byteOffset": 1350048,
      "componentType": 5126,
      "count": 792,
      "max": [
        0.8587260246276855,
        0.7934370040893555,
        -0.3072420060634613
      ],
      "min": [
        -0.8587260246276855,
        0.6513929963111877,
        -0.4598340094089508
      ],
      "type": "VEC3"
    },
    {
      "bufferView": 2,
      "byteOffset": 1359552,
      "componentType": 5126,
      "count": 792,
      "max": [
        0.2820960283279419,
        0.9994527697563171,
        0.9964810013771057
      ],
      "min": [
        -0.2820960283279419,
        -0.9994522333145142,
        -0.9995673298835754
      ],
      "type": "VEC3"
    },
    {
      "bufferView": 1,
      "byteOffset": 450016,
      "componentType": 5126,
      "count": 792,
      "max": [
        0.9824510216712952,
        0.9879459738731384
      ],
      "min": [
        0.017548300325870514,
        0.8917369842529297
      ],
      "type": "VEC2"
    },
    {
      "bufferView": 0,
      "byteOffset": 1171248,
      "componentType": 5125,
      "count": 3072,
      "type": "SCALAR"
    },
    {
      "bufferView": 2,
      "byteOffset": 1369056,
      "componentType": 5126,
      "count": 8476,
      "max": [
        0.9832350015640259,
        0.03999999910593033,
        0.5592460036277771
      ],
      "min": [
        -0.9832350015640259,
        0.0,
        -0.3952459990978241
      ],
      "type": "VEC3"
    },
    {
      "bufferView": 2,
      "byteOffset": 1470768,
      "componentType": 5126,
      "count": 8476,
      "max": [
        1.0,
        1.0,
        1.0
      ],
      "min": [
        -1.0,
        -1.0,
        -1.0
      ],
      "type": "VEC3"
    },
    {
      "bufferView": 1,
      "byteOffset": 456352,
      "componentType": 5126,
      "count": 8476,
      "max": [
        0.8945279717445374,
        0.060019299387931824
      ],
      "min": [
        0.10549300163984299,
        0.019980700686573982
      ],
      "type": "VEC2"
    },
    {
      "bufferView": 0,
      "byteOffset": 1183536,
      "componentType": 5125,
      "count": 47040,
      "type": "SCALAR"
    }
  ],
  "asset": {
    "extras": {
      "author": "BertO (https://sketchfab.com/bertosalotti)",
      "license": "CC-BY-NC-ND-4.0 (http://creativecommons.org/licenses/by-nc-nd/4.0/)",
      "source": "https://sketchfab.com/3d-models/johnny-sofa-fd5ac2451ba84893a44740d3399d7629",
      "title": "Johnny Sofa"
    },
    "generator": "Sketchfab-12.66.0",
    "version": "2.0"
  },
  "bufferViews": [
    {
      "buffer": 0,
      "byteLength": 1371696,
      "name": "floatBufferViews",
      "target": 34963
    },
    {
      "buffer": 0,
      "byteLength": 524160,
      "byteOffset": 1371696,
      "byteStride": 8,
      "name": "floatBufferViews",
      "target": 34962
    },
    {
      "buffer": 0,
      "byteLength": 1572480,
      "byteOffset": 1895856,
      "byteStride": 12,
      "name": "floatBufferViews",
      "target": 34962
    }
  ],
  "buffers": [
    {
      "byteLength": 3468336,
      "uri": "scene.bin"
    }
  ],
  "images": [
    {
      "uri": "textures/Tessuto_SF_baseColor.jpeg"
    },
    {
      "uri": "textures/Cuoio_baseColor.jpeg"
    }
  ],
  "materials": [
    {
      "doubleSided": true,
      "name": "Tessuto_SF",
      "pbrMetallicRoughness": {
        "baseColorTexture": {
          "index": 0
        },
        "metallicFactor": 0.0
      }
    },
    {
      "doubleSided": true,
      "name": "Cuoio",
      "pbrMetallicRoughness": {
        "baseColorTexture": {
          "index": 1
        },
        "metallicFactor": 0.0,
        "roughnessFactor": 0.9822624122954154
      }
    },
    {
      "doubleSided": true,
      "name": "Filo",
      "pbrMetallicRoughness": {
        "baseColorFactor": [
          0.8,
          0.799953,
          0.799984,
          1.0
        ],
        "metallicFactor": 0.0,
        "roughnessFactor": 0.9461826294237623
      }
    },
    {
      "doubleSided": true,
      "name": "Render",
      "pbrMetallicRoughness": {
        "baseColorFactor": [
          0.0328241,
          0.0328241,
          0.0328241,
          1.0
        ],
        "metallicFactor": 0.0,
        "roughnessFactor": 0.96820256
      }
    }
  ],
  "meshes": [
    {
      "name": "Material-Tessuto_SF",
      "primitives": [
        {
          "attributes": {
            "NORMAL": 1,
            "POSITION": 0,
            "TEXCOORD_0": 2
          },
          "indices": 3,
          "material": 0,
          "mode": 4
        }
      ]
    },
    {
      "name": "Material-Cuoio",
      "primitives": [
        {
          "attributes": {
            "NORMAL": 5,
            "POSITION": 4,
            "TEXCOORD_0": 6
          },
          "indices": 7,
          "material": 1,
          "mode": 4
        }
      ]
    },
    {
      "name": "Material-Filo",
      "primitives": [
        {
          "attributes": {
            "NORMAL": 9,
            "POSITION": 8,
            "TEXCOORD_0": 10
          },
          "indices": 11,
          "material": 2,
          "mode": 4
        }
      ]
    },
    {
      "name": "Material-Pvc_nero",
      "primitives": [
        {
          "attributes": {
            "NORMAL": 13,
            "POSITION": 12,
            "TEXCOORD_0": 14
          },
          "indices": 15,
          "material": 3,
          "mode": 4
        }
      ]
    }
  ],
  "nodes": [
    {
      "children": [
        1
      ],
      "matrix": [
        1.0,
        0.0,
        0.0,
        0.0,
        0.0,
        2.220446049250313e-16,
        -1.0,
        0.0,
        0.0,
        1.0,
        2.220446049250313e-16,
        0.0,
        0.0,
        0.0,
        0.0,
        1.0
      ],
      "name": "Sketchfab_model"
    },
    {
      "children": [
        2,
        4,
        6,
        11
      ],
      "matrix": [
        1.0,
        0.0,
        0.0,
        0.0,
        0.0,
        -4.371139006309477e-08,
        0.999999999999999,
        0.0,
        0.0,
        -0.999999999999999,
        -4.371139006309477e-08,
        0.0,
        0.0,
        0.0,
        0.0,
        1.0
      ],
      "name": "Collada visual scene group"
    },
    {
      "children": [
        3
      ],
      "matrix": [
        0.7071067811865475,
        0.0,
        0.7071067811865476,
        0.0,
        0.35355339059327373,
        0.8660254037844387,
        -0.3535533905932737,
        0.0,
        -0.6123724356957946,
        0.49999999999999994,
        0.6123724356957945,
        0.0,
        -2.0,
        2.0,
        2.0,
        1.0
      ],
      "name": "Directional_Light"
    },
    {
      "name": "Directional_Light"
    },
    {
      "children": [
        5
      ],
      "matrix": [
        1.0,
        0.0,
        0.0,
        0.0,
        0.0,
        0.9961946980917455,
        -0.08715574274765817,
        0.0,
        0.0,
        0.08715574274765817,
        0.9961946980917455,
        0.0,
        0.0,
        0.75,
        4.0,
        1.0
      ],
      "name": "Camera"
    },
    {
      "name": "Camera-camera003"
    },
    {
      "children": [
        7,
        8,
        9,
        10
      ],
      "name": "3_posti"
    },
    {
      "mesh": 0,
      "name": "Material-Tessuto_SF"
    },
    {
      "mesh": 1,
      "name": "Material-Cuoio"
    },
    {
      "mesh": 2,
      "name": "Material-Filo"
    },
    {
      "mesh": 3,
      "name": "Material-Pvc_nero"
    },
    {
      "children": [
        12
      ],
      "name": "Render"
    },
    {
      "name": "Render"
    }
  ],
  "samplers": [
    {
      "magFilter": 9729,
      "minFilter": 9987,
      "wrapS": 10497,
      "wrapT": 10497
    }
  ],
  "scene": 0,
  "scenes": [
    {
      "name": "Sketchfab_Scene",
      "nodes": [
        0
      ]
    }
  ],
  "textures": [
    {
      "sampler": 0,
      "source": 0
    },
    {
      "sampler": 0,
      "source": 1
    }
  ]
}
