{
  "accessors": [
    {
      "bufferView": 2,
      "componentType": 5126,
      "count": 866,
      "max": [
        0.09204418957233429,
        0.08000850677490234,
        0.0942193791270256
      ],
      "min": [
        -0.0679941177368164,
        -0.08007431775331497,
        -0.10369707643985748
      ],
      "type": "VEC3"
    },
    {
      "bufferView": 2,
      "byteOffset": 10392,
      "componentType": 5126,
      "count": 866,
      "max": [
        0.9988100528717041,
        0.9987230896949768,
        0.999613881111145
      ],
      "min": [
        -0.9991451501846313,
        -0.9987322688102722,
        -1.0
      ],
      "type": "VEC3"
    },
    {
      "bufferView": 1,
      "componentType": 5126,
      "count": 866,
      "max": [
        1.0000001192092896,
        1.0
      ],
      "min": [
        0.0,
        0.012328637763857841
      ],
      "type": "VEC2"
    },
    {
      "bufferView": 0,
      "componentType": 5125,
      "count": 4482,
      "type": "SCALAR"
    },
    {
      "bufferView": 2,
      "byteOffset": 20784,
      "componentType": 5126,
      "count": 492,
      "max": [
        0.09076740592718124,
        0.07890912145376205,
        0.03654045611619949
      ],
      "min": [
        -0.06695779412984848,
        -0.07896966487169266,
        -0.10369707643985748
      ],
      "type": "VEC3"
    },
    {
      "bufferView": 2,
      "byteOffset": 26688,
      "componentType": 5126,
      "count": 492,
      "max": [
        0.992440402507782,
        0.9925088882446289,
        1.0
      ],
      "min": [
        -0.9919180274009705,
        -0.9932693839073181,
        -0.9999995827674866
      ],
      "type": "VEC3"
    },
    {
      "bufferView": 1,
      "byteOffset": 6928,
      "componentType": 5126,
      "count": 492,
      "max": [
        1.0,
        1.0
      ],
      "min": [
        0.0,
        0.010475410148501396
      ],
      "type": "VEC2"
    },
    {
      "bufferView": 0,
      "byteOffset": 17928,
      "componentType": 5125,
      "count": 2442,
      "type": "SCALAR"
    },
    {
      "bufferView": 2,
      "byteOffset": 32592,
      "componentType": 5126,
      "count": 5204,
      "max": [
        0.02181220054626465,
        0.13168460130691528,
        0.1301591694355011
      ],
      "min": [
        -0.6428254246711731,
        -0.1352464258670807,
        -0.29236674308776855
      ],
      "type": "VEC3"
    },
    {
      "bufferView": 2,
      "byteOffset": 95040,
      "componentType": 5126,
      "count": 5204,
      "max": [
        1.0,
        1.0,
        1.0
      ],
      "min": [
        -1.0,
        -1.0,
        -1.0
      ],
      "type": "VEC3"
    },
    {
      "bufferView": 1,
      "byteOffset": 10864,
      "componentType": 5126,
      "count": 5204,
      "max": [
        1.046243667602539,
        1.0
      ],
      "min": [
        -0.004377563484013081,
        -2.3619750209036283e-05
      ],
      "type": "VEC2"
    },
    {
      "bufferView": 0,
      "byteOffset": 27696,
      "componentType": 5125,
      "count": 6744,
      "type": "SCALAR"
    },
    {
      "bufferView": 2,
      "byteOffset": 157488,
      "componentType": 5126,
      "count": 433,
      "max": [
        0.0557401105761528,
        0.040618740022182465,
        -0.004873854108154774
      ],
      "min": [
        -0.027215134352445602,
        -0.04233650490641594,
        -0.09579375386238098
      ],
      "type": "VEC3"
    },
    {
      "bufferView": 2,
      "byteOffset": 162684,
      "componentType": 5126,
      "count": 433,
      "max": [
        0.9884485602378845,
        0.9884485602378845,
        0.9999998807907104
      ],
      "min": [
        -0.9883875250816345,
        -0.9883356690406799,
        -0.9902205467224121
      ],
      "type": "VEC3"
    },
    {
      "bufferView": 1,
      "byteOffset": 52496,
      "componentType": 5126,
      "count": 433,
      "max": [
        1.0000001192092896,
        0.6887699365615845
      ],
      "min": [
        0.0,
        0.0
      ],
      "type": "VEC2"
    },
    {
      "bufferView": 0,
      "byteOffset": 54672,
      "componentType": 5125,
      "count": 2208,
      "type": "SCALAR"
    },
    {
      "bufferView": 2,
      "byteOffset": 167880,
      "componentType": 5126,
      "count": 750,
      "max": [
        0.0246212687343359,
        0.0103874197229743,
        -0.034150995314121246
      ],
      "min": [
        0.0013956770999357104,
        -0.009472424164414406,
        -0.06436408311128616
      ],
      "type": "VEC3"
    },
    {
      "bufferView": 2,
      "byteOffset": 176880,
      "componentType": 5126,
      "count": 750,
      "max": [
        0.9495518803596497,
        0.9364965558052063,
        0.9983119964599609
      ],
      "min": [
        -0.8795047998428345,
        -0.9787102937698364,
        -0.9872831106185913
      ],
      "type": "VEC3"
    },
    {
      "bufferView": 1,
      "byteOffset": 55960,
      "componentType": 5126,
      "count": 750,
      "max": [
        1.0,
        0.9998480081558228
      ],
      "min": [
        -5.960464477539063e-08,
        0.0
      ],
      "type": "VEC2"
    },
    {
      "bufferView": 0,
      "byteOffset": 63504,
      "componentType": 5125,
      "count": 750,
      "type": "SCALAR"
    }
  ],
  "asset": {
    "extras": {
      "author": "@sanyabeast (https://sketchfab.com/sanchibbo)",
      "license": "CC-BY-SA-4.0 (http://creativecommons.org/licenses/by-sa/4.0/)",
      "source": "https://sketchfab.com/3d-models/archive-sm-lamp-01-a-optimized-4931b28f33284e62b3d47bf7fc4a51ac",
      "title": "🗿 [Archive] SM Lamp 01 A Optimized"
    },
    "generator": "Sketchfab-15.30.0",
    "version": "2.0"
  },
  "bufferViews": [
    {
      "buffer": 0,
      "byteLength": 66504,
      "name": "floatBufferViews",
      "target": 34963
    },
    {
      "buffer": 0,
      "byteLength": 61960,
      "byteOffset": 66504,
      "byteStride": 8,
      "name": "floatBufferViews",
      "target": 34962
    },
    {
      "buffer": 0,
      "byteLength": 185880,
      "byteOffset": 128464,
      "byteStride": 12,
      "name": "floatBufferViews",
      "target": 34962
    }
  ],
  "buffers": [
    {
      "byteLength": 314344,
      "uri": "scene.bin"
    }
  ],
  "extensionsUsed": [
    "KHR_materials_specular",
    "KHR_materials_emissive_strength",
    "KHR_materials_clearcoat",
    "KHR_materials_transmission"
  ],
  "materials": [
    {
      "doubleSided": true,
      "extensions": {
        "KHR_materials_specular": {
          "specularColorFactor": [
            1.0,
            1.0,
            1.0
          ],
          "specularFactor": 1.0
        }
      },
      "name": "PlafondOuter",
      "pbrMetallicRoughness": {
        "baseColorFactor": [
          0.004391442037410291,
          0.012983032342173007,
          0.017641954488384074,
          1.0
        ],
        "metallicFactor": 0.4875285445976766,
        "roughnessFactor": 0.31750079363975237
      }
    },
    {
      "doubleSided": true,
      "emissiveFactor": [
        0.25,
        0.17384973875565354,
        0.10548709183759036
      ],
      "extensions": {
        "KHR_materials_specular": {
          "specularColorFactor": [
            1.0,
            1.0,
            1.0
          ],
          "specularFactor": 0.5786148397537074
        }
      },
      "name": "PlafondInnter",
      "pbrMetallicRoughness": {
        "baseColorFactor": [
          0.8,
          0.697199,
          0.529545,
          1.0
        ],
        "metallicFactor": 0.5178906429830202,
        "roughnessFactor": 0.26957466831957455
      }
    },
    {
      "doubleSided": true,
      "extensions": {
        "KHR_materials_specular": {
          "specularColorFactor": [
            1.0,
            1.0,
            1.0
          ],
          "specularFactor": 1.0
        }
      },
      "name": "Plastic",
      "pbrMetallicRoughness": {
        "baseColorFactor": [
          0.004451128310341148,
          0.013161429624862697,
          0.01760037281922528,
          1.0
        ],
        "metallicFactor": 0.2142696591295841,
        "roughnessFactor": 0.5846872594307762
      }
    },
    {
      "alphaMode": "BLEND",
      "doubleSided": true,
      "emissiveFactor": [
        0.050497440587934234,
        0.020529286936319467,
        0.0
      ],
      "extensions": {
        "KHR_materials_clearcoat": {
          "clearcoatFactor": 1.0,
          "clearcoatRoughnessFactor": 0.0
        },
        "KHR_materials_emissive_strength": {
          "emissiveStrength": 4.085870887957832
        },
        "KHR_materials_specular": {
          "specularColorFactor": [
            1.0,
            1.0,
            1.0
          ],
          "specularFactor": 1.0
        },
        "KHR_materials_transmission": {
          "transmissionFactor": 0.8768166360264467
        }
      },
      "name": "lamp",
      "pbrMetallicRoughness": {
        "baseColorFactor": [
          1.0,
          0.6140829999999999,
          0.3585489999999991,
          0.25
        ],
        "metallicFactor": 0.0,
        "roughnessFactor": 0.0
      }
    },
    {
      "doubleSided": true,
      "emissiveFactor": [
        1.0,
        0.1716812192739762,
        0.0
      ],
      "extensions": {
        "KHR_materials_emissive_strength": {
          "emissiveStrength": 10.0
        },
        "KHR_materials_specular": {
          "specularColorFactor": [
            1.0,
            1.0,
            1.0
          ],
          "specularFactor": 0.7668598497428377
        }
      },
      "name": "LampWire",
      "pbrMetallicRoughness": {
        "baseColorFactor": [
          0.028141420334282387,
          0.0015067194772375586,
          0.0015067194772375586,
          1.0
        ],
        "metallicFactor": 0.6211217774931884,
        "roughnessFactor": 0.9493218153292879
      }
    }
  ],
  "meshes": [
    {
      "name": "Cylinder.002_PlafondOuter_0",
      "primitives": [
        {
          "attributes": {
            "NORMAL": 1,
            "POSITION": 0,
            "TEXCOORD_0": 2
          },
          "indices": 3,
          "material": 0,
          "mode": 4
        }
      ]
    },
    {
      "name": "Cylinder.002_PlafondInnter_0",
      "primitives": [
        {
          "attributes": {
            "NORMAL": 5,
            "POSITION": 4,
            "TEXCOORD_0": 6
          },
          "indices": 7,
          "material": 1,
          "mode": 4
        }
      ]
    },
    {
      "name": "Cylinder.002_Plastic_0",
      "primitives": [
        {
          "attributes": {
            "NORMAL": 9,
            "POSITION": 8,
            "TEXCOORD_0": 10
          },
          "indices": 11,
          "material": 2,
          "mode": 4
        }
      ]
    },
    {
      "name": "Cylinder.002_lamp_0",
      "primitives": [
        {
          "attributes": {
            "NORMAL": 13,
            "POSITION": 12,
            "TEXCOORD_0": 14
          },
          "indices": 15,
          "material": 3,
          "mode": 4
        }
      ]
    },
    {
      "name": "Cylinder.002_LampWire_0",
      "primitives": [
        {
          "attributes": {
            "NORMAL": 17,
            "POSITION": 16,
            "TEXCOORD_0": 18
          },
          "indices": 19,
          "material": 4,
          "mode": 4
        }
      ]
    }
  ],
  "nodes": [
    {
      "children": [
        1
      ],
      "matrix": [
        1.0,
        0.0,
        0.0,
        0.0,
        0.0,
        2.220446049250313e-16,
        -1.0,
        0.0,
        0.0,
        1.0,
        2.220446049250313e-16,
        0.0,
        0.0,
        0.0,
        0.0,
        1.0
      ],
      "name": "Sketchfab_model"
    },
    {
      "children": [
        2
      ],
      "matrix": [
        1.0,
        0.0,
        0.0,
        0.0,
        0.0,
        0.0,
        1.0,
        0.0,
        0.0,
        -1.0,
        0.0,
        0.0,
        0.0,
        0.0,
        0.0,
        1.0
      ],
      "name": "7950b8da4e9c47d2b3a3cc3dd8037dd2.fbx"
    },
    {
      "children": [
        3
      ],
      "name": "RootNode"
    },
    {
      "children": [
        4,
        5,
        6,
        7,
        8
      ],
      "matrix": [
        -70.71067854026293,
        70.71067769704658,
        -1.3361603434791647e-06,
        0.0,
        -6.283315673316636e-06,
        -4.393699670757201e-06,
        99.99999999999972,
        0.0,
        70.71067769704631,
        70.7106785402628,
        7.549789926564188e-06,
        0.0,
        -25.03904914855957,
        52.72419357299805,
        0.15735754370689392,
        1.0
      ],
      "name": "Cylinder.002"
    },
    {
      "mesh": 0,
      "name": "Cylinder.002_PlafondOuter_0"
    },
    {
      "mesh": 1,
      "name": "Cylinder.002_PlafondInnter_0"
    },
    {
      "mesh": 2,
      "name": "Cylinder.002_Plastic_0"
    },
    {
      "mesh": 3,
      "name": "Cylinder.002_lamp_0"
    },
    {
      "mesh": 4,
      "name": "Cylinder.002_LampWire_0"
    }
  ],
  "scene": 0,
  "scenes": [
    {
      "name": "Sketchfab_Scene",
      "nodes": [
        0
      ]
    }
  ]
}
