{
  "accessors": [
    {
      "bufferView": 2,
      "componentType": 5126,
      "count": 664,
      "max": [
        3.622997999191284,
        4.891659736633301,
        3.839076042175293
      ],
      "min": [
        -3.622997999191284,
        -4.840235710144043,
        -3.839075803756714
      ],
      "type": "VEC3"
    },
    {
      "bufferView": 2,
      "byteOffset": 7968,
      "componentType": 5126,
      "count": 664,
      "max": [
        1.0,
        1.0,
        1.0
      ],
      "min": [
        -1.0,
        -1.0,
        -1.0
      ],
      "type": "VEC3"
    },
    {
      "bufferView": 3,
      "componentType": 5126,
      "count": 664,
      "max": [
        1.0,
        1.0,
        0.8904751539230347,
        1.0
      ],
      "min": [
        -1.0,
        -1.0,
        -0.9054064750671387,
        1.0
      ],
      "type": "VEC4"
    },
    {
      "bufferView": 1,
      "componentType": 5126,
      "count": 664,
      "max": [
        0.9862276911735535,
        0.9904717803001404
      ],
      "min": [
        0.016141310334205627,
        0.010840111412107944
      ],
      "type": "VEC2"
    },
    {
      "bufferView": 0,
      "componentType": 5125,
      "count": 2904,
      "type": "SCALAR"
    },
    {
      "bufferView": 2,
      "byteOffset": 15936,
      "componentType": 5126,
      "count": 24,
      "max": [
        2.8975577354431152,
        2.897552967071533,
        2.81596040725708
      ],
      "min": [
        -2.897559404373169,
        -2.8975636959075928,
        2.81596040725708
      ],
      "type": "VEC3"
    },
    {
      "bufferView": 2,
      "byteOffset": 16224,
      "componentType": 5126,
      "count": 24,
      "max": [
        0.0,
        0.0,
        1.0
      ],
      "min": [
        0.0,
        0.0,
        1.0
      ],
      "type": "VEC3"
    },
    {
      "bufferView": 3,
      "byteOffset": 10624,
      "componentType": 5126,
      "count": 24,
      "max": [
        -0.0602799691259861,
        -0.9981750845909119,
        0.0,
        1.0
      ],
      "min": [
        -0.0603877454996109,
        -0.9981815814971924,
        0.0,
        1.0
      ],
      "type": "VEC4"
    },
    {
      "bufferView": 1,
      "byteOffset": 5312,
      "componentType": 5126,
      "count": 24,
      "max": [
        0.7466063499450684,
        0.9836809039115906
      ],
      "min": [
        0.5351855158805847,
        0.7722600698471069
      ],
      "type": "VEC2"
    },
    {
      "bufferView": 0,
      "byteOffset": 11616,
      "componentType": 5125,
      "count": 66,
      "type": "SCALAR"
    },
    {
      "bufferView": 2,
      "byteOffset": 16512,
      "componentType": 5126,
      "count": 65,
      "max": [
        2.8016252517700195,
        2.8016252517700195,
        2.8447797298431396
      ],
      "min": [
        -2.8016252517700195,
        -2.8016252517700195,
        -1.1661369800567627
      ],
      "type": "VEC3"
    },
    {
      "bufferView": 2,
      "byteOffset": 17292,
      "componentType": 5126,
      "count": 65,
      "max": [
        0.9964410066604614,
        0.9964410662651062,
        0.5738310217857361
      ],
      "min": [
        -0.9964410662651062,
        -0.9964409470558167,
        0.0842931717634201
      ],
      "type": "VEC3"
    },
    {
      "bufferView": 3,
      "byteOffset": 11008,
      "componentType": 5126,
      "count": 65,
      "max": [
        0.9997450113296509,
        1.0,
        0.12446076422929764,
        1.0
      ],
      "min": [
        -1.0,
        -1.0,
        -0.12446076422929764,
        1.0
      ],
      "type": "VEC4"
    },
    {
      "bufferView": 1,
      "byteOffset": 5504,
      "componentType": 5126,
      "count": 65,
      "max": [
        0.4570908546447754,
        0.7702742218971252
      ],
      "min": [
        0.016141310334205627,
        0.6236732602119446
      ],
      "type": "VEC2"
    },
    {
      "bufferView": 0,
      "byteOffset": 11880,
      "componentType": 5125,
      "count": 288,
      "type": "SCALAR"
    },
    {
      "bufferView": 2,
      "byteOffset": 18072,
      "componentType": 5126,
      "count": 65,
      "max": [
        2.05515718460083,
        2.05515718460083,
        2.8447797298431396
      ],
      "min": [
        -2.05515718460083,
        -2.05515718460083,
        -1.1661369800567627
      ],
      "type": "VEC3"
    },
    {
      "bufferView": 2,
      "byteOffset": 18852,
      "componentType": 5126,
      "count": 65,
      "max": [
        0.9980801939964294,
        0.9980801939964294,
        0.4571353495121002
      ],
      "min": [
        -0.9980801939964294,
        -0.9980801939964294,
        0.06193576380610466
      ],
      "type": "VEC3"
    },
    {
      "bufferView": 3,
      "byteOffset": 12048,
      "componentType": 5126,
      "count": 65,
      "max": [
        0.9998623132705688,
        1.0,
        0.10813324898481369,
        1.0
      ],
      "min": [
        -1.0,
        -1.0,
        -0.1081332415342331,
        1.0
      ],
      "type": "VEC4"
    },
    {
      "bufferView": 1,
      "byteOffset": 6024,
      "componentType": 5126,
      "count": 65,
      "max": [
        0.8512813448905945,
        0.7547078132629395
      ],
      "min": [
        0.48210328817367554,
        0.6319687366485596
      ],
      "type": "VEC2"
    },
    {
      "bufferView": 0,
      "byteOffset": 13032,
      "componentType": 5125,
      "count": 288,
      "type": "SCALAR"
    }
  ],
  "asset": {
    "extras": {
      "author": "Kozlov Maksim (https://sketchfab.com/kozlovchik)",
      "license": "CC-BY-4.0 (http://creativecommons.org/licenses/by/4.0/)",
      "source": "https://sketchfab.com/3d-models/cup-of-coffee-5c42468141cd446b8815b09a8e203f6c",
      "title": "Cup Of Coffee"
    },
    "generator": "Sketchfab-15.27.0",
    "version": "2.0"
  },
  "bufferViews": [
    {
      "buffer": 0,
      "byteLength": 14184,
      "name": "floatBufferViews",
      "target": 34963
    },
    {
      "buffer": 0,
      "byteLength": 6544,
      "byteOffset": 14184,
      "byteStride": 8,
      "name": "floatBufferViews",
      "target": 34962
    },
    {
      "buffer": 0,
      "byteLength": 19632,
      "byteOffset": 20728,
      "byteStride": 12,
      "name": "floatBufferViews",
      "target": 34962
    },
    {
      "buffer": 0,
      "byteLength": 13088,
      "byteOffset": 40360,
      "byteStride": 16,
      "name": "floatBufferViews",
      "target": 34962
    }
  ],
  "buffers": [
    {
      "byteLength": 53448,
      "uri": "scene.bin"
    }
  ],
  "images": [
    {
      "uri": "textures/Scene_-_Root_baseColor.png"
    },
    {
      "uri": "textures/Scene_-_Root_metallicRoughness.png"
    },
    {
      "uri": "textures/Scene_-_Root_emissive.jpeg"
    },
    {
      "uri": "textures/Scene_-_Root_normal.png"
    }
  ],
  "materials": [
    {
      "alphaMode": "BLEND",
      "doubleSided": true,
      "emissiveFactor": [
        1.0,
        1.0,
        1.0
      ],
      "emissiveTexture": {
        "index": 2
      },
      "name": "Scene_-_Root",
      "normalTexture": {
        "index": 3
      },
      "occlusionTexture": {
        "index": 1
      },
      "pbrMetallicRoughness": {
        "baseColorTexture": {
          "index": 0
        },
        "metallicRoughnessTexture": {
          "index": 1
        }
      }
    }
  ],
  "meshes": [
    {
      "name": "Cylinder168__0",
      "primitives": [
        {
          "attributes": {
            "NORMAL": 1,
            "POSITION": 0,
            "TANGENT": 2,
            "TEXCOORD_0": 3
          },
          "indices": 4,
          "material": 0,
          "mode": 4
        }
      ]
    },
    {
      "name": "Object021__0",
      "primitives": [
        {
          "attributes": {
            "NORMAL": 6,
            "POSITION": 5,
            "TANGENT": 7,
            "TEXCOORD_0": 8
          },
          "indices": 9,
          "material": 0,
          "mode": 4
        }
      ]
    },
    {
      "name": "Cylinder169__0",
      "primitives": [
        {
          "attributes": {
            "NORMAL": 11,
            "POSITION": 10,
            "TANGENT": 12,
            "TEXCOORD_0": 13
          },
          "indices": 14,
          "material": 0,
          "mode": 4
        }
      ]
    },
    {
      "name": "Cylinder171__0",
      "primitives": [
        {
          "attributes": {
            "NORMAL": 16,
            "POSITION": 15,
            "TANGENT": 17,
            "TEXCOORD_0": 18
          },
          "indices": 19,
          "material": 0,
          "mode": 4
        }
      ]
    }
  ],
  "nodes": [
    {
      "children": [
        1
      ],
      "matrix": [
        1.0,
        0.0,
        0.0,
        0.0,
        0.0,
        2.220446049250313e-16,
        -1.0,
        0.0,
        0.0,
        1.0,
        2.220446049250313e-16,
        0.0,
        0.0,
        0.0,
        0.0,
        1.0
      ],
      "name": "Sketchfab_model"
    },
    {
      "children": [
        2
      ],
      "matrix": [
        1.0,
        0.0,
        0.0,
        0.0,
        0.0,
        0.0,
        1.0,
        0.0,
        0.0,
        -1.0,
        0.0,
        0.0,
        0.0,
        0.0,
        0.0,
        1.0
      ],
      "name": "f215b1c1b13a41e3829934ded774446d.fbx"
    },
    {
      "children": [
        3
      ],
      "name": "Object_2"
    },
    {
      "children": [
        4,
        6,
        8,
        10
      ],
      "name": "RootNode"
    },
    {
      "children": [
        5
      ],
      "name": "Cylinder168",
      "rotation": [
        -0.7071068286895752,
        -0.0,
        0.0,
        0.7071068286895752
      ],
      "translation": [
        9.904302597045898,
        79.40884399414063,
        56.59031677246094
      ]
    },
    {
      "mesh": 0,
      "name": "Cylinder168__0"
    },
    {
      "children": [
        7
      ],
      "name": "Object021",
      "rotation": [
        -0.7071068286895752,
        -0.0,
        0.0,
        0.7071068286895752
      ],
      "translation": [
        9.904301643371582,
        80.08929443359375,
        57.80755615234375
      ]
    },
    {
      "mesh": 1,
      "name": "Object021__0"
    },
    {
      "children": [
        9
      ],
      "name": "Cylinder169",
      "rotation": [
        -0.7071068286895752,
        -0.0,
        0.0,
        0.7071068286895752
      ],
      "translation": [
        9.904301643371582,
        84.16963195800781,
        57.80755615234375
      ]
    },
    {
      "mesh": 2,
      "name": "Cylinder169__0"
    },
    {
      "children": [
        11
      ],
      "name": "Cylinder171",
      "rotation": [
        -0.7071068286895752,
        -0.0,
        0.0,
        0.7071068286895752
      ],
      "translation": [
        9.904301643371582,
        84.16963195800781,
        57.80755615234375
      ]
    },
    {
      "mesh": 3,
      "name": "Cylinder171__0"
    }
  ],
  "samplers": [
    {
      "magFilter": 9729,
      "minFilter": 9987,
      "wrapS": 10497,
      "wrapT": 10497
    }
  ],
  "scene": 0,
  "scenes": [
    {
      "name": "Sketchfab_Scene",
      "nodes": [
        0
      ]
    }
  ],
  "textures": [
    {
      "sampler": 0,
      "source": 0
    },
    {
      "sampler": 0,
      "source": 1
    },
    {
      "sampler": 0,
      "source": 2
    },
    {
      "sampler": 0,
      "source": 3
    }
  ]
}
