{
  "accessors": [
    {
      "bufferView": 2,
      "componentType": 5126,
      "count": 9372,
      "max": [
        0.8650079965591431,
        0.7937530279159546,
        -0.3069309890270233
      ],
      "min": [
        -0.8650079965591431,
        0.6510319709777832,
        -0.46015098690986633
      ],
      "type": "VEC3"
    },
    {
      "bufferView": 2,
      "byteOffset": 112464,
      "componentType": 5126,
      "count": 9372,
      "max": [
        0.9999921321868896,
        0.99997478723526,
        0.9999904632568359
      ],
      "min": [
        -0.9999921321868896,
        -0.9999681115150452,
        -0.9999951124191284
      ],
      "type": "VEC3"
    },
    {
      "bufferView": 1,
      "componentType": 5126,
      "count": 9372,
      "max": [
        0.6740019917488098,
        0.9598889946937561
      ],
      "min": [
        0.3311760127544403,
        -0.12188900262117386
      ],
      "type": "VEC2"
    },
    {
      "bufferView": 0,
      "componentType": 5125,
      "count": 52224,
      "type": "SCALAR"
    },
    {
      "bufferView": 2,
      "byteOffset": 224928,
      "componentType": 5126,
      "count": 792,
      "max": [
        0.8592339754104614,
        0.7934370040893555,
        -0.3072420060634613
      ],
      "min": [
        -0.8592339754104614,
        0.6513929963111877,
        -0.4598340094089508
      ],
      "type": "VEC3"
    },
    {
      "bufferView": 2,
      "byteOffset": 234432,
      "componentType": 5126,
      "count": 792,
      "max": [
        0.2821309268474579,
        0.9994536638259888,
        0.9964772462844849
      ],
      "min": [
        -0.2821309268474579,
        -0.9994522333145142,
        -0.9995673298835754
      ],
      "type": "VEC3"
    },
    {
      "bufferView": 1,
      "byteOffset": 74976,
      "componentType": 5126,
      "count": 792,
      "max": [
        0.6662110090255737,
        0.9598889946937561
      ],
      "min": [
        0.3389669954776764,
        -0.12188900262117386
      ],
      "type": "VEC2"
    },
    {
      "bufferView": 0,
      "byteOffset": 208896,
      "componentType": 5125,
      "count": 3072,
      "type": "SCALAR"
    },
    {
      "bufferView": 2,
      "byteOffset": 243936,
      "componentType": 5126,
      "count": 8476,
      "max": [
        0.983244001865387,
        0.03999999910593033,
        0.5592460036277771
      ],
      "min": [
        -0.983244001865387,
        0.0,
        -0.3952459990978241
      ],
      "type": "VEC3"
    },
    {
      "bufferView": 2,
      "byteOffset": 345648,
      "componentType": 5126,
      "count": 8476,
      "max": [
        1.0,
        1.0,
        1.0
      ],
      "min": [
        -1.0,
        -1.0,
        -1.0
      ],
      "type": "VEC3"
    },
    {
      "bufferView": 1,
      "byteOffset": 81312,
      "componentType": 5126,
      "count": 8476,
      "max": [
        0.9913300275802612,
        0.9940189719200134
      ],
      "min": [
        0.013847299851477146,
        -0.02401929907500744
      ],
      "type": "VEC2"
    },
    {
      "bufferView": 0,
      "byteOffset": 221184,
      "componentType": 5125,
      "count": 47040,
      "type": "SCALAR"
    },
    {
      "bufferView": 2,
      "byteOffset": 447360,
      "componentType": 5126,
      "count": 49206,
      "max": [
        1.283210039138794,
        0.8915169835090637,
        0.6415029764175415
      ],
      "min": [
        -1.283210039138794,
        0.02818569913506508,
        -0.47215700149536133
      ],
      "type": "VEC3"
    },
    {
      "bufferView": 2,
      "byteOffset": 1037832,
      "componentType": 5126,
      "count": 49206,
      "max": [
        1.0,
        1.0,
        0.9999946355819702
      ],
      "min": [
        -1.0,
        -1.0,
        -1.0
      ],
      "type": "VEC3"
    },
    {
      "bufferView": 1,
      "byteOffset": 149120,
      "componentType": 5126,
      "count": 49206,
      "max": [
        0.9953460097312927,
        0.9591569900512695
      ],
      "min": [
        0.009831559844315052,
        -0.981673002243042
      ],
      "type": "VEC2"
    },
    {
      "bufferView": 0,
      "byteOffset": 409344,
      "componentType": 5125,
      "count": 261360,
      "type": "SCALAR"
    }
  ],
  "asset": {
    "extras": {
      "author": "BertO (https://sketchfab.com/bertosalotti)",
      "license": "CC-BY-NC-ND-4.0 (http://creativecommons.org/licenses/by-nc-nd/4.0/)",
      "source": "https://sketchfab.com/3d-models/joey-sofa-2dfe965795314befa51f3bb1552620b7",
      "title": "Joey Sofa"
    },
    "generator": "Sketchfab-12.66.0",
    "version": "2.0"
  },
  "bufferViews": [
    {
      "buffer": 0,
      "byteLength": 1454784,
      "name": "floatBufferViews",
      "target": 34963
    },
    {
      "buffer": 0,
      "byteLength": 542768,
      "byteOffset": 1454784,
      "byteStride": 8,
      "name": "floatBufferViews",
      "target": 34962
    },
    {
      "buffer": 0,
      "byteLength": 1628304,
      "byteOffset": 1997552,
      "byteStride": 12,
      "name": "floatBufferViews",
      "target": 34962
    }
  ],
  "buffers": [
    {
      "byteLength": 3625856,
      "uri": "scene.bin"
    }
  ],
  "images": [
    {
      "uri": "textures/Cuoio_baseColor.jpeg"
    },
    {
      "uri": "textures/Render_baseColor.jpeg"
    }
  ],
  "materials": [
    {
      "doubleSided": true,
      "name": "Cuoio",
      "pbrMetallicRoughness": {
        "baseColorTexture": {
          "index": 0
        },
        "metallicFactor": 0.0,
        "roughnessFactor": 0.9916725011026326
      }
    },
    {
      "doubleSided": true,
      "name": "Filo",
      "pbrMetallicRoughness": {
        "baseColorFactor": [
          0.8,
          0.799953,
          0.799984,
          1.0
        ],
        "metallicFactor": 0.0,
        "roughnessFactor": 0.9461826294237623
      }
    },
    {
      "doubleSided": true,
      "name": "Pvc_nero",
      "pbrMetallicRoughness": {
        "baseColorFactor": [
          0.0,
          0.0,
          0.0,
          1.0
        ],
        "metallicFactor": 0.0,
        "roughnessFactor": 0.96820256
      }
    },
    {
      "doubleSided": true,
      "name": "Render",
      "pbrMetallicRoughness": {
        "baseColorTexture": {
          "index": 1
        },
        "metallicFactor": 0.0,
        "roughnessFactor": 0.9773725830020304
      }
    }
  ],
  "meshes": [
    {
      "name": "Material-Cuoio",
      "primitives": [
        {
          "attributes": {
            "NORMAL": 1,
            "POSITION": 0,
            "TEXCOORD_0": 2
          },
          "indices": 3,
          "material": 0,
          "mode": 4
        }
      ]
    },
    {
      "name": "Material-Filo",
      "primitives": [
        {
          "attributes": {
            "NORMAL": 5,
            "POSITION": 4,
            "TEXCOORD_0": 6
          },
          "indices": 7,
          "material": 1,
          "mode": 4
        }
      ]
    },
    {
      "name": "Material-Pvc_nero",
      "primitives": [
        {
          "attributes": {
            "NORMAL": 9,
            "POSITION": 8,
            "TEXCOORD_0": 10
          },
          "indices": 11,
          "material": 2,
          "mode": 4
        }
      ]
    },
    {
      "name": "Material-Tessuto_EXP",
      "primitives": [
        {
          "attributes": {
            "NORMAL": 13,
            "POSITION": 12,
            "TEXCOORD_0": 14
          },
          "indices": 15,
          "material": 3,
          "mode": 4
        }
      ]
    }
  ],
  "nodes": [
    {
      "children": [
        1
      ],
      "matrix": [
        1.0,
        0.0,
        0.0,
        0.0,
        0.0,
        2.220446049250313e-16,
        -1.0,
        0.0,
        0.0,
        1.0,
        2.220446049250313e-16,
        0.0,
        0.0,
        0.0,
        0.0,
        1.0
      ],
      "name": "Sketchfab_model"
    },
    {
      "children": [
        2,
        4,
        6,
        11
      ],
      "matrix": [
        1.0,
        0.0,
        0.0,
        0.0,
        0.0,
        -4.371139006309477e-08,
        0.999999999999999,
        0.0,
        0.0,
        -0.999999999999999,
        -4.371139006309477e-08,
        0.0,
        0.0,
        0.0,
        0.0,
        1.0
      ],
      "name": "Collada visual scene group"
    },
    {
      "children": [
        3
      ],
      "matrix": [
        0.7071067811865475,
        0.0,
        0.7071067811865476,
        0.0,
        0.35355339059327373,
        0.8660254037844387,
        -0.3535533905932737,
        0.0,
        -0.6123724356957946,
        0.49999999999999994,
        0.6123724356957945,
        0.0,
        -2.0,
        2.0,
        2.0,
        1.0
      ],
      "name": "Directional_Light"
    },
    {
      "name": "Directional_Light"
    },
    {
      "children": [
        5
      ],
      "matrix": [
        1.0,
        0.0,
        0.0,
        0.0,
        0.0,
        0.9961946980917455,
        -0.08715574274765817,
        0.0,
        0.0,
        0.08715574274765817,
        0.9961946980917455,
        0.0,
        0.0,
        0.75,
        4.0,
        1.0
      ],
      "name": "Camera"
    },
    {
      "name": "Camera-camera003"
    },
    {
      "children": [
        7,
        8,
        9,
        10
      ],
      "name": "Mesh"
    },
    {
      "mesh": 0,
      "name": "Material-Cuoio"
    },
    {
      "mesh": 1,
      "name": "Material-Filo"
    },
    {
      "mesh": 2,
      "name": "Material-Pvc_nero"
    },
    {
      "mesh": 3,
      "name": "Material-Tessuto_EXP"
    },
    {
      "children": [
        12
      ],
      "name": "Render"
    },
    {
      "name": "Render"
    }
  ],
  "samplers": [
    {
      "magFilter": 9729,
      "minFilter": 9987,
      "wrapS": 10497,
      "wrapT": 10497
    }
  ],
  "scene": 0,
  "scenes": [
    {
      "name": "Sketchfab_Scene",
      "nodes": [
        0
      ]
    }
  ],
  "textures": [
    {
      "sampler": 0,
      "source": 0
    },
    {
      "sampler": 0,
      "source": 1
    }
  ]
}
