{
  "accessors": [
    {
      "bufferView": 2,
      "componentType": 5126,
      "count": 31698,
      "max": [
        0.42552798986434937,
        0.7300000190734863,
        0.42552798986434937
      ],
      "min": [
        -0.42552798986434937,
        0.006000000052154064,
        -0.42552798986434937
      ],
      "type": "VEC3"
    },
    {
      "bufferView": 2,
      "byteOffset": 380376,
      "componentType": 5126,
      "count": 31698,
      "max": [
        1.0,
        1.0,
        1.0
      ],
      "min": [
        -1.0,
        -1.0,
        -1.0
      ],
      "type": "VEC3"
    },
    {
      "bufferView": 1,
      "componentType": 5126,
      "count": 31698,
      "max": [
        1.0038000345230103,
        1.0018999576568604
      ],
      "min": [
        -0.49999698996543884,
        -0.005069429986178875
      ],
      "type": "VEC2"
    },
    {
      "bufferView": 1,
      "byteOffset": 253584,
      "componentType": 5126,
      "count": 31698,
      "max": [
        0.0,
        1.0
      ],
      "min": [
        -1.0,
        0.0
      ],
      "type": "VEC2"
    },
    {
      "bufferView": 0,
      "componentType": 5125,
      "count": 139350,
      "type": "SCALAR"
    },
    {
      "bufferView": 2,
      "byteOffset": 760752,
      "componentType": 5126,
      "count": 2018,
      "max": [
        0.6499999761581421,
        0.75,
        0.6499999761581421
      ],
      "min": [
        -0.6499999761581421,
        0.7400000095367432,
        -0.6499999761581421
      ],
      "type": "VEC3"
    },
    {
      "bufferView": 2,
      "byteOffset": 784968,
      "componentType": 5126,
      "count": 2018,
      "max": [
        1.0,
        1.0,
        1.0
      ],
      "min": [
        -1.0,
        -1.0,
        -1.0
      ],
      "type": "VEC3"
    },
    {
      "bufferView": 1,
      "byteOffset": 507168,
      "componentType": 5126,
      "count": 2018,
      "max": [
        0.9997320175170898,
        0.9997320175170898
      ],
      "min": [
        0.00026770500699058175,
        0.00026770398835651577
      ],
      "type": "VEC2"
    },
    {
      "bufferView": 1,
      "byteOffset": 523312,
      "componentType": 5126,
      "count": 2018,
      "max": [
        -1.0,
        0.0
      ],
      "min": [
        -1.0,
        0.0
      ],
      "type": "VEC2"
    },
    {
      "bufferView": 0,
      "byteOffset": 557400,
      "componentType": 5125,
      "count": 12096,
      "type": "SCALAR"
    },
    {
      "bufferView": 2,
      "byteOffset": 809184,
      "componentType": 5126,
      "count": 560,
      "max": [
        0.40687400102615356,
        0.006000009831041098,
        0.40687400102615356
      ],
      "min": [
        -0.40687400102615356,
        3.0004799555172212e-05,
        -0.40687400102615356
      ],
      "type": "VEC3"
    },
    {
      "bufferView": 2,
      "byteOffset": 815904,
      "componentType": 5126,
      "count": 560,
      "max": [
        0.99517422914505,
        1.0,
        0.99517422914505
      ],
      "min": [
        -0.99517422914505,
        -0.9957081079483032,
        -0.99517422914505
      ],
      "type": "VEC3"
    },
    {
      "bufferView": 1,
      "byteOffset": 539456,
      "componentType": 5126,
      "count": 560,
      "max": [
        0.21900199353694916,
        0.6666669845581055
      ],
      "min": [
        0.05973749980330467,
        0.6666669845581055
      ],
      "type": "VEC2"
    },
    {
      "bufferView": 1,
      "byteOffset": 543936,
      "componentType": 5126,
      "count": 560,
      "max": [
        -1.0,
        1.0
      ],
      "min": [
        -1.0,
        0.0
      ],
      "type": "VEC2"
    },
    {
      "bufferView": 0,
      "byteOffset": 605784,
      "componentType": 5125,
      "count": 2832,
      "type": "SCALAR"
    },
    {
      "bufferView": 2,
      "byteOffset": 822624,
      "componentType": 5126,
      "count": 34756,
      "max": [
        0.3755109906196594,
        0.7398999929428101,
        0.3755109906196594
      ],
      "min": [
        -0.3755109906196594,
        0.7300000190734863,
        -0.3755109906196594
      ],
      "type": "VEC3"
    },
    {
      "bufferView": 2,
      "byteOffset": 1239696,
      "componentType": 5126,
      "count": 34756,
      "max": [
        1.0,
        1.0,
        1.0
      ],
      "min": [
        -1.0,
        -1.0,
        -1.0
      ],
      "type": "VEC3"
    },
    {
      "bufferView": 1,
      "byteOffset": 548416,
      "componentType": 5126,
      "count": 34756,
      "max": [
        0.9989290237426758,
        0.9989290237426758
      ],
      "min": [
        0.0010705400491133332,
        0.0010705300373956561
      ],
      "type": "VEC2"
    },
    {
      "bufferView": 1,
      "byteOffset": 826464,
      "componentType": 5126,
      "count": 34756,
      "max": [
        -1.0,
        0.0
      ],
      "min": [
        -1.0,
        0.0
      ],
      "type": "VEC2"
    },
    {
      "bufferView": 0,
      "byteOffset": 617112,
      "componentType": 5125,
      "count": 164688,
      "type": "SCALAR"
    }
  ],
  "asset": {
    "extras": {
      "author": "BertO (https://sketchfab.com/bertosalotti)",
      "license": "CC-BY-NC-ND-4.0 (http://creativecommons.org/licenses/by-nc-nd/4.0/)",
      "source": "https://sketchfab.com/3d-models/ring-round-table-fdb3045312c041689a113eaf2f45fcfb",
      "title": "Ring Round Table"
    },
    "generator": "Sketchfab-12.66.0",
    "version": "2.0"
  },
  "bufferViews": [
    {
      "buffer": 0,
      "byteLength": 1275864,
      "name": "floatBufferViews",
      "target": 34963
    },
    {
      "buffer": 0,
      "byteLength": 1104512,
      "byteOffset": 1275864,
      "byteStride": 8,
      "name": "floatBufferViews",
      "target": 34962
    },
    {
      "buffer": 0,
      "byteLength": 1656768,
      "byteOffset": 2380376,
      "byteStride": 12,
      "name": "floatBufferViews",
      "target": 34962
    }
  ],
  "buffers": [
    {
      "byteLength": 4037144,
      "uri": "scene.bin"
    }
  ],
  "materials": [
    {
      "doubleSided": true,
      "name": "Metallo_gambe",
      "pbrMetallicRoughness": {
        "baseColorFactor": [
          0.120658,
          0.12065,
          0.120654,
          1.0
        ],
        "metallicFactor": 0.85,
        "roughnessFactor": 0.2
      }
    },
    {
      "alphaMode": "BLEND",
      "doubleSided": true,
      "name": "vetro",
      "pbrMetallicRoughness": {
        "baseColorFactor": [
          0.5279670514809472,
          0.8900807444937324,
          0.8928293248917687,
          0.05
        ],
        "metallicFactor": 0.0,
        "roughnessFactor": 0.5
      }
    },
    {
      "doubleSided": true,
      "name": "Gommini",
      "pbrMetallicRoughness": {
        "baseColorFactor": [
          0.120658,
          0.12065,
          0.120654,
          1.0
        ],
        "metallicFactor": 0.0,
        "roughnessFactor": 0.6
      }
    },
    {
      "doubleSided": true,
      "name": "Render",
      "pbrMetallicRoughness": {
        "baseColorFactor": [
          0.153889,
          0.153879,
          0.153884,
          1.0
        ],
        "metallicFactor": 0.0,
        "roughnessFactor": 0.6
      }
    }
  ],
  "meshes": [
    {
      "name": "Material-Metallo_gambe",
      "primitives": [
        {
          "attributes": {
            "NORMAL": 1,
            "POSITION": 0,
            "TEXCOORD_0": 2,
            "TEXCOORD_1": 3
          },
          "indices": 4,
          "material": 0,
          "mode": 4
        }
      ]
    },
    {
      "name": "Material-vetro",
      "primitives": [
        {
          "attributes": {
            "NORMAL": 6,
            "POSITION": 5,
            "TEXCOORD_0": 7,
            "TEXCOORD_1": 8
          },
          "indices": 9,
          "material": 1,
          "mode": 4
        }
      ]
    },
    {
      "name": "Material-Gommini",
      "primitives": [
        {
          "attributes": {
            "NORMAL": 11,
            "POSITION": 10,
            "TEXCOORD_0": 12,
            "TEXCOORD_1": 13
          },
          "indices": 14,
          "material": 2,
          "mode": 4
        }
      ]
    },
    {
      "name": "Material-Cromato",
      "primitives": [
        {
          "attributes": {
            "NORMAL": 16,
            "POSITION": 15,
            "TEXCOORD_0": 17,
            "TEXCOORD_1": 18
          },
          "indices": 19,
          "material": 3,
          "mode": 4
        }
      ]
    }
  ],
  "nodes": [
    {
      "children": [
        1
      ],
      "matrix": [
        1.0,
        0.0,
        0.0,
        0.0,
        0.0,
        2.220446049250313e-16,
        -1.0,
        0.0,
        0.0,
        1.0,
        2.220446049250313e-16,
        0.0,
        0.0,
        0.0,
        0.0,
        1.0
      ],
      "name": "Sketchfab_model"
    },
    {
      "children": [
        2,
        4,
        6,
        11
      ],
      "matrix": [
        1.0,
        0.0,
        0.0,
        0.0,
        0.0,
        -4.371139006309477e-08,
        0.999999999999999,
        0.0,
        0.0,
        -0.999999999999999,
        -4.371139006309477e-08,
        0.0,
        0.0,
        0.0,
        0.0,
        1.0
      ],
      "name": "Collada visual scene group"
    },
    {
      "children": [
        3
      ],
      "matrix": [
        0.7071067811865475,
        0.0,
        0.7071067811865476,
        0.0,
        0.35355339059327373,
        0.8660254037844387,
        -0.3535533905932737,
        0.0,
        -0.6123724356957946,
        0.49999999999999994,
        0.6123724356957945,
        0.0,
        -2.0,
        2.0,
        2.0,
        1.0
      ],
      "name": "Directional_Light"
    },
    {
      "name": "Directional_Light"
    },
    {
      "children": [
        5
      ],
      "matrix": [
        1.0,
        0.0,
        0.0,
        0.0,
        0.0,
        0.9961946980917455,
        -0.08715574274765817,
        0.0,
        0.0,
        0.08715574274765817,
        0.9961946980917455,
        0.0,
        0.0,
        0.75,
        4.0,
        1.0
      ],
      "name": "Camera"
    },
    {
      "name": "Camera-camera003"
    },
    {
      "children": [
        7,
        8,
        9,
        10
      ],
      "name": "Mesh"
    },
    {
      "mesh": 0,
      "name": "Material-Metallo_gambe"
    },
    {
      "mesh": 1,
      "name": "Material-vetro"
    },
    {
      "mesh": 2,
      "name": "Material-Gommini"
    },
    {
      "mesh": 3,
      "name": "Material-Cromato"
    },
    {
      "children": [
        12
      ],
      "name": "Render"
    },
    {
      "name": "Render"
    }
  ],
  "scene": 0,
  "scenes": [
    {
      "name": "Sketchfab_Scene",
      "nodes": [
        0
      ]
    }
  ]
}
